<?xml version="1.0" encoding="utf-8"?>
<!-- Generator: Adobe Illustrator 26.0.2, SVG Export Plug-In . SVG Version: 6.00 Build 0)  -->
<svg version="1.1" id="Imagotype-Main" xmlns="http://www.w3.org/2000/svg" xmlns:xlink="http://www.w3.org/1999/xlink" x="0px"
	 y="0px" viewBox="0 0 2179.6 500" style="enable-background:new 0 0 2179.6 500;" xml:space="preserve">
<style type="text/css">
	.st0{fill:#25283D;}
	.st1{opacity:0.6;fill:#25283D;enable-background:new    ;}
</style>
<path id="Text" class="st0" d="M807.7,168.6h-44.8v-54.4h-53.6v54.4H677V210h32.3v126.4c-0.3,42.8,30.8,63.8,71,62.6
	c15.2-0.4,25.7-3.4,31.5-5.3l-9-41.9c-3,0.7-9,2.1-15.7,2.1c-13.5,0-24.3-4.7-24.3-26.3V210h44.8v-41.4H807.7z M852.4,395.8H906
	V168.6h-53.6V395.8z M879.4,136.3c17,0,30.9-13,30.9-29c0-16.1-13.9-29.1-30.9-29.1c-17.2,0-31.1,13-31.1,29.1
	C848.3,123.3,862.2,136.3,879.4,136.3z M1014.6,262.7c0-32.8,19.8-51.8,48.1-51.8c27.7,0,44.2,18.2,44.2,48.5v136.4h53.6V251.1
	c0.1-54.5-30.9-85.5-77.8-85.5c-34,0-57.4,16.3-67.8,41.6h-2.7v-38.6H961v227.3h53.6V262.7L1014.6,262.7z M1240.1,481
	c41.7,0,65.8-21.5,78.7-57.7l91.3-254.5l-57.3-0.3l-52.5,171.6h-2.4l-52.4-171.6h-56.8l82.4,232l-4.6,12.3
	c-9.9,25.9-25.6,27.7-49,20.9l-12.4,41.7C1212.5,478.4,1225.5,481,1240.1,481z M1449.7,395.8h52.7V360h3.1
	c8.4,16.6,26,39.8,65.1,39.8c53.6,0,93.7-42.5,93.7-117.3c0-75.8-41.3-116.9-93.8-116.9c-40.1,0-56.8,24.1-65,40.5h-2.2V92.8h-53.6
	L1449.7,395.8L1449.7,395.8z M1502.2,282.2c0-44.1,18.9-72.7,53.4-72.7c35.7,0,54,30.3,54,72.7c0,42.6-18.6,73.7-54,73.7
	C1521.5,355.9,1502.2,326.3,1502.2,282.2z M1709.8,395.8h53.6V168.6h-53.6V395.8z M1736.7,136.3c17,0,30.9-13,30.9-29
	c0-16.1-13.9-29.1-30.9-29.1c-17.2,0-31.1,13-31.1,29.1C1705.6,123.3,1719.5,136.3,1736.7,136.3z M1818.4,395.8h53.6V262.2
	c0-28.9,21.7-49.3,51.2-49.3c9,0,20.3,1.6,24.9,3.1v-49.3c-4.9-0.9-13.3-1.5-19.2-1.5c-26,0-47.8,14.8-56.1,41.1h-2.4v-37.9h-51.9
	L1818.4,395.8L1818.4,395.8z M2058.6,399.8c39.1,0,56.7-23.2,65.1-39.8h3.2v35.8h52.7v-303h-53.7v113.3h-2.2
	c-8.1-16.4-24.9-40.5-65-40.5c-52.5,0-93.8,41.1-93.8,116.9C1964.9,357.4,2005,399.8,2058.6,399.8z M2073.5,355.9
	c-35.4,0-54-31.1-54-73.7c0-42.3,18.3-72.7,54-72.7c34.5,0,53.4,28.6,53.4,72.7S2107.7,355.9,2073.5,355.9z"/>
<g id="Bird">
	<path class="st1" d="M500,42.8L343.9,0L289,122.7L500,42.8L500,42.8z M350.7,345.4l-142.9-51.1L123.9,500L350.7,345.4z"/>
	<path class="st0" d="M0,219.9l350.7,125.5l57.5-268.2L0,219.9L0,219.9z"/>
</g>
</svg>
